<svg xmlns="http://www.w3.org/2000/svg" xmlns:xlink="http://www.w3.org/1999/xlink" width="50" zoomAndPan="magnify" viewBox="0 0 37.5 37.499999" height="50" preserveAspectRatio="xMidYMid meet" version="1.0"><defs><clipPath id="41b8506a2d"><path d="M 11.484375 21 L 25.546875 21 L 25.546875 37.003906 L 11.484375 37.003906 Z M 11.484375 21 " clip-rule="nonzero"/></clipPath></defs><g clip-path="url(#41b8506a2d)"><path fill="#d3ac2b" d="M 25.546875 28.796875 L 22.226562 28.6875 L 22.1875 21.753906 L 21.367188 21.753906 L 21.367188 23.808594 C 21.367188 23.972656 21.234375 24.105469 21.070312 24.105469 L 20.917969 24.105469 C 20.753906 24.105469 20.621094 23.972656 20.621094 23.808594 L 20.621094 21.757812 L 19.78125 21.757812 L 19.78125 24.703125 C 19.78125 24.867188 19.648438 25 19.484375 25 L 19.328125 25 C 19.164062 25 19.03125 24.867188 19.03125 24.703125 L 19.03125 21.761719 L 18.355469 21.761719 L 18.355469 26.417969 C 18.355469 26.582031 18.226562 26.714844 18.0625 26.714844 L 17.90625 26.714844 C 17.742188 26.714844 17.609375 26.582031 17.609375 26.417969 L 17.609375 21.765625 L 16.84375 21.765625 L 16.84375 23.390625 C 16.84375 23.554688 16.710938 23.6875 16.546875 23.6875 L 16.390625 23.6875 C 16.226562 23.6875 16.09375 23.554688 16.09375 23.390625 L 16.09375 21.769531 L 15.253906 21.769531 L 15.183594 28.648438 L 11.460938 28.613281 L 18.832031 37.003906 Z M 25.546875 28.796875 " fill-opacity="1" fill-rule="nonzero"/></g><path fill="#d3ac2b" d="M 16.851562 17.367188 L 16.851562 21.78125 L 17.605469 21.78125 L 17.605469 17.367188 Z M 16.851562 17.367188 " fill-opacity="1" fill-rule="nonzero"/><path fill="#d3ac2b" d="M 21.367188 13.867188 L 21.367188 17.308594 L 22.179688 17.308594 L 22.179688 13.867188 Z M 21.367188 13.867188 " fill-opacity="1" fill-rule="nonzero"/><path fill="#d3ac2b" d="M 21.367188 10.871094 L 21.367188 13.207031 L 22.179688 13.207031 L 22.179688 10.871094 Z M 21.367188 10.871094 " fill-opacity="1" fill-rule="nonzero"/><path fill="#d3ac2b" d="M 19.820312 7.542969 L 19.820312 14.046875 L 20.632812 14.046875 L 20.632812 7.542969 Z M 19.820312 7.542969 " fill-opacity="1" fill-rule="nonzero"/><path fill="#d3ac2b" d="M 19.820312 5.671875 L 19.820312 6.769531 L 20.632812 6.769531 L 20.632812 5.671875 Z M 19.820312 5.671875 " fill-opacity="1" fill-rule="nonzero"/><path fill="#d3ac2b" d="M 19.792969 15.273438 L 19.792969 21.777344 L 20.605469 21.777344 L 20.605469 15.273438 Z M 19.792969 15.273438 " fill-opacity="1" fill-rule="nonzero"/><path fill="#d3ac2b" d="M 18.351562 9.242188 L 18.351562 21.78125 L 19.035156 21.78125 L 19.035156 9.242188 Z M 18.351562 9.242188 " fill-opacity="1" fill-rule="nonzero"/><path fill="#d3ac2b" d="M 18.371094 4.414062 L 18.371094 7.828125 L 19.179688 7.828125 L 19.179688 4.414062 Z M 18.371094 4.414062 " fill-opacity="1" fill-rule="nonzero"/><path fill="#d3ac2b" d="M 18.441406 1.550781 L 18.441406 3.269531 L 19.253906 3.269531 L 19.253906 1.550781 Z M 18.441406 1.550781 " fill-opacity="1" fill-rule="nonzero"/><path fill="#d3ac2b" d="M 18.386719 0 L 18.386719 0.785156 L 19.199219 0.785156 L 19.199219 0 Z M 18.386719 0 " fill-opacity="1" fill-rule="nonzero"/><path fill="#d3ac2b" d="M 16.851562 10.75 L 16.851562 16.375 L 17.605469 16.375 L 17.605469 10.75 Z M 16.851562 10.75 " fill-opacity="1" fill-rule="nonzero"/><path fill="#d3ac2b" d="M 16.851562 5.835938 L 16.851562 9.523438 L 17.605469 9.523438 L 17.605469 5.835938 Z M 16.851562 5.835938 " fill-opacity="1" fill-rule="nonzero"/><path fill="#d3ac2b" d="M 16.851562 3.886719 L 16.851562 5.191406 L 17.605469 5.191406 L 17.605469 3.886719 Z M 16.851562 3.886719 " fill-opacity="1" fill-rule="nonzero"/><path fill="#d3ac2b" d="M 16.851562 2.066406 L 16.851562 2.933594 L 17.605469 2.933594 L 17.605469 2.066406 Z M 16.851562 2.066406 " fill-opacity="1" fill-rule="nonzero"/><path fill="#d3ac2b" d="M 15.25 7.164062 L 15.25 8.027344 L 16.003906 8.027344 L 16.003906 7.164062 Z M 15.25 7.164062 " fill-opacity="1" fill-rule="nonzero"/><path fill="#d3ac2b" d="M 15.25 9.152344 L 15.25 12.699219 L 16.003906 12.699219 L 16.003906 9.152344 Z M 15.25 9.152344 " fill-opacity="1" fill-rule="nonzero"/><path fill="#d3ac2b" d="M 15.25 13.757812 L 15.25 19.34375 L 16.003906 19.34375 L 16.003906 13.757812 Z M 15.25 13.757812 " fill-opacity="1" fill-rule="nonzero"/><path fill="#d3ac2b" d="M 15.25 19.992188 L 15.25 21.777344 L 16.089844 21.777344 L 16.089844 19.992188 Z M 15.25 19.992188 " fill-opacity="1" fill-rule="nonzero"/><path fill="#d3ac2b" d="M 21.367188 18.367188 L 21.367188 21.089844 L 22.179688 21.089844 L 22.179688 18.367188 Z M 21.367188 18.367188 " fill-opacity="1" fill-rule="nonzero"/></svg>